<?xml version="1.0" encoding="UTF-8" standalone="no"?>
<!-- Created with Inkscape (http://www.inkscape.org/) -->

<svg
   xmlns:dc="http://purl.org/dc/elements/1.1/"
   xmlns:cc="http://creativecommons.org/ns#"
   xmlns:rdf="http://www.w3.org/1999/02/22-rdf-syntax-ns#"
   xmlns:svg="http://www.w3.org/2000/svg"
   xmlns="http://www.w3.org/2000/svg"
   xmlns:sodipodi="http://sodipodi.sourceforge.net/DTD/sodipodi-0.dtd"
   xmlns:inkscape="http://www.inkscape.org/namespaces/inkscape"
   width="85.860016mm"
   height="57.405964mm"
   viewBox="0 0 304.2284 203.40696"
   id="svg2"
   version="1.1"
   inkscape:version="0.92.3 (2405546, 2018-03-11)"
   sodipodi:docname="AVw.svg">
  <defs
     id="defs4" />
  <sodipodi:namedview
     id="base"
     pagecolor="#ffffff"
     bordercolor="#666666"
     borderopacity="1.0"
     inkscape:pageopacity="0.0"
     inkscape:pageshadow="2"
     inkscape:zoom="0.77824916"
     inkscape:cx="270.65084"
     inkscape:cy="-57.892885"
     inkscape:document-units="px"
     inkscape:current-layer="layer1"
     showgrid="false"
     showguides="true"
     inkscape:guide-bbox="true"
     inkscape:window-width="1920"
     inkscape:window-height="1017"
     inkscape:window-x="-8"
     inkscape:window-y="-8"
     inkscape:window-maximized="1"
     fit-margin-top="0"
     fit-margin-left="0"
     fit-margin-right="0"
     fit-margin-bottom="0" />
  <metadata
     id="metadata7">
    <rdf:RDF>
      <cc:Work
         rdf:about="">
        <dc:format>image/svg+xml</dc:format>
        <dc:type
           rdf:resource="http://purl.org/dc/dcmitype/StillImage" />
        <dc:title></dc:title>
      </cc:Work>
    </rdf:RDF>
  </metadata>
  <g
     inkscape:label="Layer 1"
     inkscape:groupmode="layer"
     id="layer1"
     transform="translate(-99.877633,-301.38589)">
    <g
       id="g53"
       transform="matrix(0.88739489,0,0,1,11.296976,0)"
       style="fill:#ffffff;stroke:#ffffff">
      <path
         inkscape:connector-curvature="0"
         id="path3340"
         d="m 140.05799,484.34811 c 0.84202,16.26894 -20.84634,26.36082 -32.74706,15.23298 -12.993789,-9.83791 -6.72869,-32.9236 9.44541,-34.85969 11.7853,-2.32859 23.59682,7.60639 23.30165,19.62671 z"
         style="fill:#ffffff;fill-opacity:1;stroke:#ffffff" />
      <path
         inkscape:connector-curvature="0"
         id="circle3342"
         d="m 241.10302,321.85464 c 0.84203,16.26894 -20.84633,26.36082 -32.74706,15.23298 -12.99378,-9.83791 -6.72868,-32.92359 9.44541,-34.85968 11.78531,-2.3286 23.59683,7.60638 23.30165,19.6267 z"
         style="fill:#ffffff;stroke:#ffffff" />
      <path
         inkscape:connector-curvature="0"
         id="circle3354"
         d="m 340.90908,483.48203 c 0.84203,16.26893 -20.84633,26.36081 -32.74706,15.23297 -12.99378,-9.83791 -6.72868,-32.92359 9.44541,-34.85968 11.78531,-2.3286 23.59683,7.60638 23.30165,19.62671 z"
         style="fill:#ffffff;stroke:#ffffff" />
      <path
         inkscape:connector-curvature="0"
         id="circle3358"
         d="m 442.13031,322.30188 c 0.84202,16.26894 -20.84634,26.36081 -32.74707,15.23298 -12.99378,-9.83791 -6.72868,-32.9236 9.44542,-34.85969 11.7853,-2.32859 23.59682,7.60638 23.30165,19.62671 z"
         style="fill:#ffffff;stroke:#ffffff" />
      <path
         inkscape:connector-curvature="0"
         id="path3360"
         d="M 102.41044,475.1171 C 136.36842,420.49366 170.3264,365.87021 204.28438,311.24677"
         style="fill:#ffffff;fill-rule:evenodd;stroke:#ffffff;stroke-width:1.05609119px;stroke-linecap:butt;stroke-linejoin:miter;stroke-opacity:1" />
      <path
         inkscape:connector-curvature="0"
         id="path3362"
         d="M 236.83787,334.07061 C 203.15639,388.32059 169.47491,442.57058 135.79343,496.82056"
         style="fill:#ffffff;fill-rule:evenodd;stroke:#ffffff;stroke-width:0.95916009px;stroke-linecap:butt;stroke-linejoin:miter;stroke-opacity:1" />
      <path
         inkscape:connector-curvature="0"
         id="path3364"
         d="m 203.35121,330.97959 c 33.73547,54.63643 67.47094,109.27286 101.20641,163.90929"
         style="fill:#ffffff;fill-rule:evenodd;stroke:#ffffff;stroke-width:1.03995156px;stroke-linecap:butt;stroke-linejoin:miter;stroke-opacity:1" />
      <path
         inkscape:connector-curvature="0"
         id="path3366"
         d="m 236.75033,309.2819 c 33.72748,54.52376 67.45495,109.04753 101.18243,163.57129"
         style="fill:#ffffff;fill-rule:evenodd;stroke:#ffffff;stroke-width:1.00341904px;stroke-linecap:butt;stroke-linejoin:miter;stroke-opacity:1" />
      <path
         inkscape:connector-curvature="0"
         id="path3368"
         d="M 302.98858,474.69466 C 337.52028,419.7849 372.05197,364.87513 406.58367,309.96537"
         style="fill:#ffffff;fill-rule:evenodd;stroke:#ffffff;stroke-width:1.06776273px;stroke-linecap:butt;stroke-linejoin:miter;stroke-opacity:1" />
      <path
         inkscape:connector-curvature="0"
         id="path3370"
         d="M 439.1778,332.7904 C 404.57768,387.22968 369.97756,441.66897 335.37744,496.10825"
         style="fill:#ffffff;fill-rule:evenodd;stroke:#ffffff;stroke-width:0.97384679px;stroke-linecap:butt;stroke-linejoin:miter;stroke-opacity:1" />
      <path
         inkscape:connector-curvature="0"
         id="circle3372"
         d="m 340.62039,322.29523 c 0.84202,16.26893 -20.84634,26.36081 -32.74706,15.23298 -12.99379,-9.83791 -6.72869,-32.9236 9.44541,-34.85969 11.78531,-2.32859 23.59682,7.60638 23.30165,19.62671 z"
         style="fill:#ffffff;stroke:#ffffff" />
      <path
         inkscape:connector-curvature="0"
         id="circle3374"
         d="m 240.39541,484.3623 c 0.84203,16.26894 -20.84633,26.36082 -32.74706,15.23298 -12.99378,-9.83791 -6.72868,-32.9236 9.44541,-34.85968 11.78531,-2.3286 23.59683,7.60638 23.30165,19.6267 z"
         style="fill:#ffffff;stroke:#ffffff" />
      <path
         inkscape:connector-curvature="0"
         id="path3376"
         d="m 120.77494,464.44658 c 33.83664,0 67.67328,0 101.50992,0"
         style="fill:#ffffff;fill-rule:evenodd;stroke:#ffffff;stroke-width:1.00638986px;stroke-linecap:butt;stroke-linejoin:miter;stroke-opacity:1" />
      <path
         inkscape:connector-curvature="0"
         id="path3378"
         d="m 119.76456,504.23007 c 33.78853,0 67.57705,0 101.36558,0"
         style="fill:#ffffff;fill-rule:evenodd;stroke:#ffffff;stroke-width:1.005674px;stroke-linecap:butt;stroke-linejoin:miter;stroke-opacity:1" />
      <path
         inkscape:connector-curvature="0"
         id="path3380"
         d="m 322.94003,302.42582 c 33.83664,0 67.67328,0 101.50992,0"
         style="fill:#ffffff;fill-rule:evenodd;stroke:#ffffff;stroke-width:1.00638986px;stroke-linecap:butt;stroke-linejoin:miter;stroke-opacity:1" />
      <path
         inkscape:connector-curvature="0"
         id="path3382"
         d="m 322.94003,342.28148 c 33.83664,0 67.67328,0 101.50992,0"
         style="fill:#ffffff;fill-rule:evenodd;stroke:#ffffff;stroke-width:1.00638986px;stroke-linecap:butt;stroke-linejoin:miter;stroke-opacity:1" />
      <path
         inkscape:connector-curvature="0"
         id="path4302"
         d="m 123.29265,464.06845 c -0.40825,13.20876 -0.81651,26.41752 -1.22476,39.62628"
         style="fill:#ffffff;fill-rule:evenodd;stroke:#ffffff;stroke-width:1px;stroke-linecap:butt;stroke-linejoin:miter;stroke-opacity:1" />
      <path
         inkscape:connector-curvature="0"
         id="path4304"
         d="m 220.45706,464.06845 c 0.13609,13.20876 0.27217,26.41752 0.40826,39.62628"
         style="fill:#ffffff;fill-rule:evenodd;stroke:#ffffff;stroke-width:1px;stroke-linecap:butt;stroke-linejoin:miter;stroke-opacity:1" />
      <path
         inkscape:connector-curvature="0"
         id="rect4311"
         d="m 123.45096,464.46674 c 32.01043,0 64.02086,0 96.03129,0 0,13.0793 0,26.15861 0,39.23792 -32.01043,0 -64.02086,0 -96.03129,0 0,-13.07931 0,-26.15862 0,-39.23792 z"
         style="opacity:1;fill:#ffffff;fill-opacity:1;stroke:#ffffff;stroke-width:0.98010194;stroke-opacity:1" />
      <path
         inkscape:connector-curvature="0"
         id="rect4315"
         d="m 321.11877,302.97052 c 34.41132,0 68.82264,0 103.23395,0 0,13.08136 0,26.16273 0,39.24409 -34.41131,0 -68.82263,0 -103.23395,0 0,-13.08136 0,-26.16273 0,-39.24409 z"
         style="opacity:1;fill:#ffffff;fill-opacity:1;stroke:#ffffff;stroke-width:0.98010492;stroke-opacity:1" />
      <path
         inkscape:connector-curvature="0"
         id="rect4319"
         d="m 106.43216,470.43031 c 33.28442,-53.62312 66.56883,-107.24624 99.85324,-160.86935 11.53389,7.05187 23.06779,14.10375 34.60169,21.15563 -33.28441,53.62311 -66.56882,107.24623 -99.85323,160.86935 -11.5339,-7.05188 -23.0678,-14.10376 -34.6017,-21.15563 z"
         style="opacity:1;fill:#ffffff;fill-opacity:1;stroke:#ffffff;stroke-width:1.39913213;stroke-opacity:1" />
      <path
         inkscape:connector-curvature="0"
         id="rect4321"
         d="m 302.61552,472.82592 c 33.4231,-53.03735 66.84618,-106.0747 100.26927,-159.11204 11.5514,7.25252 23.10281,14.50505 34.65422,21.75757 -33.4231,53.03735 -66.84619,106.07469 -100.26928,159.11204 -11.55139,-7.25252 -23.1028,-14.50505 -34.65421,-21.75757 z"
         style="opacity:1;fill:#ffffff;fill-opacity:1;stroke:#ffffff;stroke-width:1.40065372;stroke-opacity:1" />
      <path
         inkscape:connector-curvature="0"
         id="rect4323"
         d="M 335.09048,468.86919 C 303.16381,417.03315 271.23714,365.19712 239.3105,313.36108 c -11.18984,6.98797 -22.37966,13.97593 -33.5695,20.96389 31.92667,51.83605 63.85331,103.67207 95.77997,155.50812 11.18984,-6.98796 22.37967,-13.97593 33.56951,-20.9639 z"
         style="opacity:1;fill:#ffffff;fill-opacity:1;stroke:#ffffff;stroke-width:1.35746431;stroke-opacity:1" />
    </g>
  </g>
</svg>
